/* XPM */
static char * help_32x32_xpm[] = {
"32 32 5 1",
" 	c None",
".	c #38363E",
"+	c #0A090D",
"@	c #1C1B20",
"#	c #05D5FC",
"...............................+",
".@@@@@@@@@@@@@@@@@@@@@@@@@@@@@@+",
".@@@@@@@@@@@@@@@@@@@@@@@@@@@@@@+",
".@@@@@@@@@@@@@@@@@@@@@@@@@@@@@@+",
".@@@@@@@@@@@@@@@@@@@@@@@@@@@@@@+",
".@@@@@@@@@@@@@@@@@@@@@@@@@@@@@@+",
".@@@@@@@@@@@########@@@@@@@@@@@+",
".@@@@@@@@@@##########@@@@@@@@@@+",
".@@@@@@@@@############@@@@@@@@@+",
".@@@@@@@@@###@@@@@@####@@@@@@@@+",
".@@@@@@@@@##@@@@@@@@###@@@@@@@@+",
".@@@@@@@@@@@@@@@@@@@###@@@@@@@@+",
".@@@@@@@@@@@@@@@@@@####@@@@@@@@+",
".@@@@@@@@@@@@@@@@@####@@@@@@@@@+",
".@@@@@@@@@@@@@@@@####@@@@@@@@@@+",
".@@@@@@@@@@@@@@@####@@@@@@@@@@@+",
".@@@@@@@@@@@@@@####@@@@@@@@@@@@+",
".@@@@@@@@@@@@@####@@@@@@@@@@@@@+",
".@@@@@@@@@@@@####@@@@@@@@@@@@@@+",
".@@@@@@@@@@@@####@@@@@@@@@@@@@@+",
".@@@@@@@@@@@@####@@@@@@@@@@@@@@+",
".@@@@@@@@@@@@####@@@@@@@@@@@@@@+",
".@@@@@@@@@@@@@@@@@@@@@@@@@@@@@@+",
".@@@@@@@@@@@@@@@@@@@@@@@@@@@@@@+",
".@@@@@@@@@@@@####@@@@@@@@@@@@@@+",
".@@@@@@@@@@@@####@@@@@@@@@@@@@@+",
".@@@@@@@@@@@@####@@@@@@@@@@@@@@+",
".@@@@@@@@@@@@####@@@@@@@@@@@@@@+",
".@@@@@@@@@@@@@@@@@@@@@@@@@@@@@@+",
".@@@@@@@@@@@@@@@@@@@@@@@@@@@@@@+",
".@@@@@@@@@@@@@@@@@@@@@@@@@@@@@@+",
"++++++++++++++++++++++++++++++++"};
