/* XPM */
static char * reboot_32x32_xpm[] = {
"32 32 35 1",
" 	c None",
".	c #38363E",
"+	c #0A090D",
"@	c #1C1B20",
"#	c #05D5FC",
"$	c #06D4FA",
"%	c #1B4553",
"&	c #10AFD0",
"*	c #12A5C3",
"=	c #177F97",
"-	c #09CAEF",
";	c #0EB9DB",
">	c #10B0D1",
",	c #187085",
"'	c #0FB3D4",
")	c #1A5263",
"!	c #13A0BE",
"~	c #06D1F7",
"{	c #19697D",
"]	c #0DBBDE",
"^	c #12A7C6",
"/	c #08CCF1",
"(	c #18788F",
"_	c #05D4FB",
":	c #196072",
"<	c #139CBA",
"[	c #19687C",
"}	c #1C2F39",
"|	c #1A5565",
"1	c #11ABCB",
"2	c #1592AE",
"3	c #0AC7EB",
"4	c #1B3640",
"5	c #158DA7",
"6	c #09C9EE",
"...............................+",
".@@@@@@@@@@@@@@@@@@@@@@@@@@@@@@+",
".@@@@@@@@@@@@@@@@@@@@@@@@@@@@@@+",
".@@@@@@@@@@@@@@@@@@@@@@@@@@@@@@+",
".@@@@@##########$@@@@@@@@@@@@@@+",
".@@@@@@@#########@@@@@@@@@@@@@@+",
".@@@@@@@@########@@@@@@@@@@@@@@+",
".@@@@@@@%&#######@@@@@@@@@@@@@@+",
".@@@@@@@*########@@@@@@@@@@@@@@+",
".@@@@@@=#####-###@@@@@@@@@@@@@@+",
".@@@@@@;####>####@@@@@@@@@@@@@@+",
".@@@@@,####')@@##@@@@@@@@@@@@@@+",
".@@@@@!###~{@@@@#@@@@@@@@@@@@@@+",
".@@@@@]###^@@@@@#@@@@@@@@@@@@@@+",
".@@@@@/###(@@@@@@@@@@@@@@@@@@@@+",
".@@@@@_###%@@@@@@@@@@@@@@@@@@@@+",
".@@@@@_###@@@@@@@@@@@@@@@@@@@@@+",
".@@@@@/###%@@@@@@@@@@@@@@@@@@@@+",
".@@@@@]###(@@@@@@@@@@@@@@@@@@@@+",
".@@@@@!###^@@@@@@@@@@@@^###!@@@+",
".@@@@@,###~{@@@@@@@@@@{~###,@@@+",
".@@@@@@;###')@@@@@@@@)'###;@@@@+",
".@@@@@@=####>:@@@@@@:>####=@@@@+",
".@@@@@@@*####-<[}}[<-####*@@@@@+",
".@@@@@@@%&##############&%@@@@@+",
".@@@@@@@@|1############1|@@@@@@+",
".@@@@@@@@@@23########32@@@@@@@@+",
".@@@@@@@@@@@45'6$$6'54@@@@@@@@@+",
".@@@@@@@@@@@@@@@@@@@@@@@@@@@@@@+",
".@@@@@@@@@@@@@@@@@@@@@@@@@@@@@@+",
".@@@@@@@@@@@@@@@@@@@@@@@@@@@@@@+",
"++++++++++++++++++++++++++++++++"};
