/* XPM */
static char * restart_32x32_xpm[] = {
"32 32 36 1",
" 	c None",
".	c #38363E",
"+	c #141318",
"@	c #1C1B20",
"#	c #16869F",
"$	c #10B0D1",
"%	c #0AC8EC",
"&	c #06D3FA",
"*	c #16849C",
"=	c #0CBFE2",
"-	c #05D5FC",
";	c #1C2229",
">	c #139CBA",
",	c #05D4FB",
"'	c #139EBB",
")	c #09CAF0",
"!	c #139DBB",
"~	c #19697D",
"{	c #1C323C",
"]	c #158CA6",
"^	c #10AFD0",
"/	c #1A5F71",
"(	c #1A5161",
"_	c #0AC6EB",
":	c #11ACCC",
"<	c #1B4B59",
"[	c #13A0BE",
"}	c #0CC1E4",
"|	c #1A5667",
"1	c #1C2F39",
"2	c #08CBF1",
"3	c #1688A2",
"4	c #0BC2E6",
"5	c #11A9C8",
"6	c #0CC0E3",
"7	c #18778E",
"...............................+",
".@@@@@@@@@@@@@@@@@@@@@@@@@@@@@@+",
".@@@@@@@@@@@@@@@@@@@@@@@@@@@@@@+",
".@@@@@@@@@@@#$%&&%$#@@@@@@@@@@@+",
".@@@@@@@@@*=--------=*@@@@@@@@@+",
".@@@@@@@;>,----------,>;@@-@@@@+",
".@@@@@@@'---)!~{{~!)---'@@-@@@@+",
".@@@@@@]---^/@@@@@@/^---]@-@@@@+",
".@@@@@(_--:<@@@@@@@@<:--_(-@@@@+",
".@@@@@[--}|@@@@@@@@@@|}----@@@@+",
".@@@@12--3@@@@@@@@@@@@3----@@@@+",
".@@@@*--4@@@@@@@@@@@@@@----@@@@+",
".@@@@5--'@@@@@@@@@@@@@-----@@@@+",
".@@@@6--7@@@@@@@@@@@@------@@@@+",
".@@@@@@@@@@@@@@@@@---------@@@@+",
".@@@@@@@@@@@@@@@@@@@@@@@@@@@@@@+",
".@@@@@@@@@@@@@@@@@@@@@@@@@@@@@@+",
".@@@@---------@@@@@@@@@@@@@@@@@+",
".@@@@------@@@@@@@@@@@@7--6@@@@+",
".@@@@-----@@@@@@@@@@@@@'--5@@@@+",
".@@@@----@@@@@@@@@@@@@@4--*@@@@+",
".@@@@----3@@@@@@@@@@@@3--21@@@@+",
".@@@@----}|@@@@@@@@@@|}--[@@@@@+",
".@@@@-(_--:<@@@@@@@@<:--_(@@@@@+",
".@@@@-@]---^/@@@@@@/^---]@@@@@@+",
".@@@@-@@'---)!~{{~!)---'@@@@@@@+",
".@@@@-@@;>,----------,>;@@@@@@@+",
".@@@@@@@@@*=--------=*@@@@@@@@@+",
".@@@@@@@@@@@#$%&&%$#@@@@@@@@@@@+",
".@@@@@@@@@@@@@@@@@@@@@@@@@@@@@@+",
".@@@@@@@@@@@@@@@@@@@@@@@@@@@@@@+",
"++++++++++++++++++++++++++++++++"};
