/* XPM */
static char * themes_32x32_xpm[] = {
"32 32 9 1",
" 	c None",
".	c #38363E",
"+	c #0A090D",
"@	c #1C1B20",
"#	c #18748A",
"$	c #0FB3D4",
"%	c #07D0F6",
"&	c #0BC4E8",
"*	c #05D5FC",
"...............................+",
".@@@@@@@@@@@@@@@@@@@@@@@@@@@@@@+",
".@@@@@@@@@@@@@@@@@@@@@@@@@@@@@@+",
".@@@@@@@@@@@@@@@@@@@@@@@@@@@@@@+",
".@@@@@@@@@@@@@@@@@@@@@@@@@@@@@@+",
".@@@@@@@@@@@@#$%%$#@@@@@@@@@@@@+",
".@@@@@@@@@@@#&****&#@@@@@@@@@@@+",
".@@@@@@@@@@@$******$@@@@@@@@@@@+",
".@@@@@@@@@@@%******%@@@@@@@@@@@+",
".@@@@@@@@@@@%******%@@@@@@@@@@@+",
".@@@@@@@@@@@$******$@@@@@@@@@@@+",
".@@@@@@@@@@@#&****&#@@@@@@@@@@@+",
".@@@#$%%$#@@@#$%%$#@@@#$%%$#@@@+",
".@@#&****&#@@@@@@@@@@#&****&#@@+",
".@@$******$@@@@@@@@@@$******$@@+",
".@@%******%@@@@@@@@@@%******%@@+",
".@@%******%@@@@@@@@@@%******%@@+",
".@@$******$@@@@@@@@@@$******$@@+",
".@@#&****&#@@@@@@@@@@#&****&#@@+",
".@@@#$%%$#@@@#$%%$#@@@#$%%$#@@@+",
".@@@@@@@@@@@#&****&#@@@@@@@@@@@+",
".@@@@@@@@@@@$******$@@@@@@@@@@@+",
".@@@@@@@@@@@%******%@@@@@@@@@@@+",
".@@@@@@@@@@@%******%@@@@@@@@@@@+",
".@@@@@@@@@@@$******$@@@@@@@@@@@+",
".@@@@@@@@@@@#&****&#@@@@@@@@@@@+",
".@@@@@@@@@@@@#$%%$#@@@@@@@@@@@@+",
".@@@@@@@@@@@@@@@@@@@@@@@@@@@@@@+",
".@@@@@@@@@@@@@@@@@@@@@@@@@@@@@@+",
".@@@@@@@@@@@@@@@@@@@@@@@@@@@@@@+",
".@@@@@@@@@@@@@@@@@@@@@@@@@@@@@@+",
"++++++++++++++++++++++++++++++++"};
