/* XPM */
static char * xterm_16x16_xpm[] = {
"16 16 5 1",
" 	c None",
".	c #38363E",
"+	c #0A090D",
"@	c #1C1B20",
"#	c #05D5FC",
"...............+",
".@@@@@@@@@@@@@@+",
".@@@@@@@@@@@@@@+",
".@@..........@@+",
".@@.++++++++.@@+",
".@@.+#++++++.@@+",
".@@.++#+++++.@@+",
".@@.+++#++++.@@+",
".@@.+++#++++.@@+",
".@@.++#+++++.@@+",
".@@.+#+++##+.@@+",
".@@.++++++++.@@+",
".@@..........@@+",
".@@@@@@@@@@@@@@+",
".@@@@@@@@@@@@@@+",
"++++++++++++++++"};
