/* XPM */
static char * app_11x11_xpm[] = {
"20 20 92 2",
"  	c None",
". 	c #EDEDEE",
"+ 	c #FFFFFF",
"@ 	c #E3E3E7",
"# 	c #BBBBBC",
"$ 	c #F3F3F5",
"% 	c #D8D8DE",
"& 	c #FBFBFC",
"* 	c #D9D9DF",
"= 	c #E5E5E9",
"- 	c #F5F5F7",
"; 	c #FAFAFD",
"> 	c #F0F0F3",
", 	c #C4C4C9",
"' 	c #EFEFF4",
") 	c #E4E4E9",
"! 	c #E6E6EB",
"~ 	c #F1F1F5",
"{ 	c #E6E6EA",
"] 	c #9A9AA3",
"^ 	c #61616E",
"/ 	c #686873",
"( 	c #C3C3CB",
"_ 	c #EAEAF0",
": 	c #E2E2E7",
"< 	c #82828E",
"[ 	c #777782",
"} 	c #5F5F62",
"| 	c #E6E6ED",
"1 	c #E8E8EF",
"2 	c #ADADB5",
"3 	c #81818A",
"4 	c #9A9AA2",
"5 	c #E1E1E9",
"6 	c #E0E0E7",
"7 	c #92929D",
"8 	c #79797B",
"9 	c #E0E0E9",
"0 	c #9B9BA3",
"a 	c #CCCCD8",
"b 	c #D8D8E0",
"c 	c #DDDDE6",
"d 	c #D6D6DD",
"e 	c #9D9DA6",
"f 	c #CDCDD8",
"g 	c #9797AC",
"h 	c #9C9CB2",
"i 	c #ABABC0",
"j 	c #BDBDCB",
"k 	c #B0B0B8",
"l 	c #676774",
"m 	c #A8A8BE",
"n 	c #A9A9BE",
"o 	c #D6D6DC",
"p 	c #A2A2A4",
"q 	c #A2A2A3",
"r 	c #B0B0C3",
"s 	c #ADADC1",
"t 	c #DBDBE3",
"u 	c #D3D3D9",
"v 	c #ADADC0",
"w 	c #B4B4C3",
"x 	c #B1B1C3",
"y 	c #BBBBCA",
"z 	c #C4C4D1",
"A 	c #EDEDF2",
"B 	c #DFDFE4",
"C 	c #BDBDBE",
"D 	c #B2B2C6",
"E 	c #ACACBB",
"F 	c #BDBDC9",
"G 	c #C6C6D3",
"H 	c #D2D2DB",
"I 	c #EAEAEF",
"J 	c #F0F0F6",
"K 	c #E4E4EA",
"L 	c #F1F1F6",
"M 	c #63636C",
"N 	c #CDCDD5",
"O 	c #D8D8DF",
"P 	c #DBDBE1",
"Q 	c #E2E2E6",
"R 	c #EDEDEF",
"S 	c #D2D2D8",
"T 	c #E0E0E4",
"U 	c #EEEEF0",
"V 	c #EEEEEE",
"W 	c #E0E0E5",
"X 	c #D1D1D3",
"Y 	c #939393",
"Z 	c #E9E9E9",
"` 	c #E4E4E4",
"                                        ",
"                  . .                   ",
"          + @   # $ $ #   @ +           ",
"          % & & & & & & & & *           ",
"          = - ; > , , > ; - =           ",
"    ' ) ! ~ { ] ^ / / ^ ] { ~ ! ) '     ",
"    ( _ _ : < [ }     } [ < : _ _ (     ",
"      | 1 2 3             3 2 1 |       ",
"    4 5 6 7 8             8 7 6 9 0     ",
"  a b c d e                 e d c b f   ",
"  g h i j k                 k j i h g   ",
"    l m n o p             q o n m l     ",
"      r s t u             u t v r       ",
"    w x y z A B C     C B A z y x w     ",
"    D E F G H I J K K L I H G F E D     ",
"    M     N O P Q R R Q P O N     M     ",
"          S T U R V V R U T S           ",
"          W X   Y Z Z Y   X W           ",
"                  ` `                   ",
"                                        "};
