/* XPM */
static char * xterm_xpm[] = {
"20 20 121 2",
"  	c None",
". 	c #A5A5A5",
"+ 	c #A4A4A4",
"@ 	c #9E9E9E",
"# 	c #DDDDDD",
"$ 	c #D6D6D6",
"% 	c #C8C9C9",
"& 	c #CACACA",
"* 	c #999999",
"= 	c #E0E0E0",
"- 	c #2B2C2C",
"; 	c #1D1E1E",
"> 	c #1F2020",
", 	c #989898",
"' 	c #D8D8D8",
") 	c #171818",
"! 	c #5C5C5C",
"~ 	c #585858",
"{ 	c #585757",
"] 	c #575757",
"^ 	c #5B5B5B",
"/ 	c #969696",
"( 	c #1A1B1B",
"_ 	c #555555",
": 	c #515151",
"< 	c #505050",
"[ 	c #545454",
"} 	c #959595",
"| 	c #D4D4D4",
"1 	c #191A1A",
"2 	c #4E4E4E",
"3 	c #474747",
"4 	c #4D4D4D",
"5 	c #939393",
"6 	c #D2D2D2",
"7 	c #171718",
"8 	c #6C6C6C",
"9 	c #868685",
"0 	c #454545",
"a 	c #484848",
"b 	c #4A4A4A",
"c 	c #4E4D4D",
"d 	c #919191",
"e 	c #D0D0D0",
"f 	c #141515",
"g 	c #818180",
"h 	c #F9F9F6",
"i 	c #B5B5B4",
"j 	c #424242",
"k 	c #181919",
"l 	c #8F8F8F",
"m 	c #CECECE",
"n 	c #515150",
"o 	c #848483",
"p 	c #CCCCCB",
"q 	c #E1E1E0",
"r 	c #898988",
"s 	c #494948",
"t 	c #484747",
"u 	c #8E8E8E",
"v 	c #CBCBCB",
"w 	c #444444",
"x 	c #414141",
"y 	c #3F3F3F",
"z 	c #898989",
"A 	c #EEEEEC",
"B 	c #8D8D8D",
"C 	c #C9CACA",
"D 	c #161717",
"E 	c #8C8C8B",
"F 	c #CFCFCE",
"G 	c #D9D9D8",
"H 	c #7C7C7B",
"I 	c #3E3E3E",
"J 	c #404040",
"K 	c #8B8B8B",
"L 	c #C7C8C8",
"M 	c #121313",
"N 	c #777777",
"O 	c #F2F2F0",
"P 	c #A4A4A3",
"Q 	c #353535",
"R 	c #3B3B3B",
"S 	c #373737",
"T 	c #383838",
"U 	c #3D3D3D",
"V 	c #C5C6C6",
"W 	c #585857",
"X 	c #6F6F6F",
"Y 	c #323232",
"Z 	c #363636",
"` 	c #393939",
" .	c #787877",
"..	c #7A7A79",
"+.	c #7B7B7A",
"@.	c #646464",
"#.	c #333333",
"$.	c #3A3A3A",
"%.	c #878787",
"&.	c #C3C3C3",
"*.	c #131414",
"=.	c #303030",
"-.	c #A6A6A5",
";.	c #AAAAA8",
">.	c #ACACAB",
",.	c #858584",
"'.	c #2E2E2E",
").	c #868686",
"!.	c #C6C6C6",
"~.	c #222323",
"{.	c #1B1C1C",
"].	c #1C1C1C",
"^.	c #111212",
"/.	c #111112",
"(.	c #111111",
"_.	c #C1C1C1",
":.	c #A9A9A9",
"<.	c #999A9A",
"[.	c #9B9B9B",
"}.	c #949494",
"|.	c #6D6D6D",
"                                        ",
"  . + . . . . . . . . . . . . . . + .   ",
"@ # $ % & & & & & & & & & & & & % $ # @ ",
"* = - ; > > > > > > > > > > > > ; - = * ",
", ' ) ! ~ { { { { { { { ] ] ] ] ^ ) ' , ",
"/ $ ( _ : : : : : : : : : < < < [ ( $ / ",
"} | 1 2 3 4 2 2 2 2 2 2 2 2 2 2 : 1 | } ",
"5 6 7 8 9 0 a b b b b b b b b b c 1 6 5 ",
"d e f g h i ~ j 3 3 3 3 3 3 3 3 b k e d ",
"l m ) n o p q r s 0 0 0 0 0 0 0 t k m l ",
"u v ) w x y z A [ x x x x x x x w ) v u ",
"B C D 2 E F G H x I I I I I I I J ) C B ",
"K L M N O P a Q R S S S S T R R U D L K ",
"z V f W X Y Z ` Q  .....+.@.#.T $.D V z ",
"%.&.*.Q =.Z Z Z =.-.;.;.>.,.'.Z T *.&.%.",
").!.~.1 {.{.{.{.].^././.(.f ].{.1 ~.!.).",
"%._.:.<.[.[.[.[.[.[.[.[.[.[.[.[.<.:._.).",
"  B }.}.}.}.}.}.}.}.}.}.}.}.}.}.}.}.B |.",
"                                        ",
"                                        "};
