/* XPM */
static char * start_xpm[] = {
"70 32 53 1",
" 	c None",
".	c #1C1B20",
"+	c #38363E",
"@	c #323038",
"#	c #323138",
"$	c #36343C",
"%	c #1E1D22",
"&	c #212026",
"*	c #212025",
"=	c #28262D",
"-	c #2C2A30",
";	c #35333B",
">	c #201F24",
",	c #242329",
"'	c #2B292F",
")	c #313037",
"!	c #2F2C34",
"~	c #2F2D34",
"{	c #312F37",
"]	c #25242A",
"^	c #37353D",
"/	c #1E1C22",
"(	c #1E1D21",
"_	c #232227",
":	c #34333B",
"<	c #27262C",
"[	c #2E2D33",
"}	c #2D2C33",
"|	c #29282F",
"1	c #312F38",
"2	c #2A282F",
"3	c #232228",
"4	c #1D1C21",
"5	c #1E1D23",
"6	c #343239",
"7	c #26242A",
"8	c #1B1A1F",
"9	c #2F2E36",
"0	c #34323B",
"a	c #35323A",
"b	c #222127",
"c	c #1F1E24",
"d	c #2E2D34",
"e	c #302E35",
"f	c #232128",
"g	c #333139",
"h	c #1C1B21",
"i	c #333138",
"j	c #36343B",
"k	c #211F25",
"l	c #2B2A31",
"m	c #323137",
"n	c #35333C",
"......................................................................",
"......................................................................",
"......................................................................",
"......................................................................",
"......................................................................",
"......................................................................",
"......................................................................",
"......................................................................",
"......................................................................",
"......++++@......#++++..++++++++++..++++$%...++++..++++.....++++......",
"......+++++&....*+++++..++++++++++..+++++=...++++..++++.....++++......",
"......+++++-....-+++++..++++........+++++@...++++..++++.....++++......",
"......+++++;....;+++++..++++........++++++>..++++..++++.....++++......",
"......++++++,..,++++++..++++........++++@+'..++++..++++.....++++......",
"......++++)+!..~+{++++..++++........++++=+;..++++..++++.....++++......",
"......++++]+^//^+]++++..+++++++++...++++(^+_.++++..++++.....++++......",
"......++++.:+<<+:.++++..+++++++++...++++.[+}.++++..++++.....++++......",
"......++++.|+1)+2.++++..++++........++++.3+$4++++..++++.....++++......",
"......++++.5$++$5.++++..++++........++++..6+7++++..$+++8...8+++$......",
"......++++..[++[..++++..++++........++++..2+9++++..0+++4...4+++a......",
"......++++..b++b..++++..++++........++++..c^^++++..d+++3...3+++~......",
"......++++........++++..++++........++++...e+++++..f+++g&h&i+++f......",
"......++++........++++..++++++++++..++++...]+++++...=^+++++++^=.......",
"......++++........++++..++++++++++..++++....j++++....klmn$nmlk........",
"......................................................................",
"......................................................................",
"......................................................................",
"......................................................................",
"......................................................................",
"......................................................................",
"......................................................................",
"......................................................................"};
