/* XPM */
static char * windows_xpm[] = {
"24 24 2 1",
" 	c None",
".	c #38363E",
"                        ",
"                        ",
"                        ",
"                        ",
"                        ",
"                        ",
"                        ",
"        ....            ",
"        ....            ",
"        .  .            ",
"        ......          ",
"          ....          ",
"          .  .          ",
"          ......        ",
"            ....        ",
"            .  .        ",
"            ....        ",
"                        ",
"                        ",
"                        ",
"                        ",
"                        ",
"                        ",
"                        "};
