/* XPM */
static char * closeA_xpm[] = {
"28 48 5 1",
" 	c None",
".	c #1C1B20",
"+	c #05D5FC",
"@	c #000000",
"#	c #FFFFFF",
"............................",
"............................",
"............................",
"............................",
"............................",
"............................",
"............++++............",
"..........++++++++..........",
".........+@@++++@@+.........",
".........+@@@++@@@+.........",
"........+++@@@@@@+++........",
"........++++@@@@++++........",
"........++++@@@@++++........",
"........+++@@@@@@+++........",
".........+@@@++@@@+.........",
".........+@@++++@@+.........",
"..........++++++++..........",
"............++++............",
"............................",
"............................",
"............................",
"............................",
"............................",
"............................",
"............................",
"............................",
"............................",
"............................",
"............................",
"............................",
"............++++............",
"..........++++++++..........",
".........+##++++##+.........",
".........+###++###+.........",
"........+++######+++........",
"........++++####++++........",
"........++++####++++........",
"........+++######+++........",
".........+###++###+.........",
".........+##++++##+.........",
"..........++++++++..........",
"............++++............",
"............................",
"............................",
"............................",
"............................",
"............................",
"............................"};
