/* XPM */
static char * menusep_xpm[] = {
"45 2 3 1",
" 	c None",
".	c #282732",
"+	c #1C1B20",
".............................................",
"+++++++++++++++++++++++++++++++++++++++++++++"};
