/* XPM */
static char * restoreA_xpm[] = {
"20 48 5 1",
" 	c None",
".	c #1C1B20",
"+	c #05D5FC",
"@	c #000000",
"#	c #FFFFFF",
"....................",
"....................",
"....................",
"....................",
"....................",
"....................",
"........++++........",
"......++++++++......",
".....++++++++++.....",
".....++++++++++.....",
"....+++@@@@@@+++....",
"....+++@@@@@@+++....",
"....+++@++++@+++....",
"....+++@++++@+++....",
".....++@@@@@@++.....",
".....++++++++++.....",
"......++++++++......",
"........++++........",
"....................",
"....................",
"....................",
"....................",
"....................",
"....................",
"....................",
"....................",
"....................",
"....................",
"....................",
"....................",
"........++++........",
"......++++++++......",
".....++++++++++.....",
".....++++++++++.....",
"....+++######+++....",
"....+++######+++....",
"....+++#++++#+++....",
"....+++#++++#+++....",
".....++######++.....",
".....++++++++++.....",
"......++++++++......",
"........++++........",
"....................",
"....................",
"....................",
"....................",
"....................",
"...................."};
