/* XPM */
static char * rollupI_xpm[] = {
"20 48 5 1",
" 	c None",
".	c #3A3E42",
"+	c #C3C3C3",
"@	c #000000",
"#	c #FFFFFF",
"....................",
"....................",
"....................",
"....................",
"....................",
"....................",
"........++++........",
"......++++++++......",
".....++++@@++++.....",
".....+++@@@@+++.....",
"....+++@@@@@@+++....",
"....++@@@@@@@@++....",
"....+++++@@+++++....",
"....+++++@@+++++....",
".....++++@@++++.....",
".....++++@@++++.....",
"......++++++++......",
"........++++........",
"....................",
"....................",
"....................",
"....................",
"....................",
"....................",
"....................",
"....................",
"....................",
"....................",
"....................",
"....................",
"........++++........",
"......++++++++......",
".....++++##++++.....",
".....+++####+++.....",
"....+++######+++....",
"....++########++....",
"....+++++##+++++....",
"....+++++##+++++....",
".....++++##++++.....",
".....++++##++++.....",
"......++++++++......",
"........++++........",
"....................",
"....................",
"....................",
"....................",
"....................",
"...................."};
