/* XPM */
static char * rolldownO_xpm[] = {
"20 48 5 1",
" 	c None",
".	c #1C1B20",
"+	c #FBC15A",
"@	c #000000",
"#	c #FFFFFF",
"....................",
"....................",
"....................",
"....................",
"....................",
"....................",
"........++++........",
"......++++++++......",
".....++++@@++++.....",
".....++++@@++++.....",
"....+++++@@+++++....",
"....+++++@@+++++....",
"....++@@@@@@@@++....",
"....+++@@@@@@+++....",
".....+++@@@@+++.....",
".....++++@@++++.....",
"......++++++++......",
"........++++........",
"....................",
"....................",
"....................",
"....................",
"....................",
"....................",
"....................",
"....................",
"....................",
"....................",
"....................",
"....................",
"........++++........",
"......++++++++......",
".....++++##++++.....",
".....++++##++++.....",
"....+++++##+++++....",
"....+++++##+++++....",
"....++########++....",
"....+++######+++....",
".....+++####+++.....",
".....++++##++++.....",
"......++++++++......",
"........++++........",
"....................",
"....................",
"....................",
"....................",
"....................",
"...................."};
