/* XPM */
static char *  linux4_xpm[] = {
"45 18 64 1",
" 	c None",
".	c #2d2d2d",
"+	c #312E2C",
"@	c #36302C",
"#	c #B36121",
"$	c #DE711D",
"%	c #8E5224",
"&	c #2E2D2C",
"*	c #583D29",
"=	c #D06C1E",
"-	c #9F5923",
";	c #44362A",
">	c #B06021",
",	c #B86321",
"'	c #3F332B",
")	c #48372A",
"!	c #6C4527",
"~	c #834E25",
"{	c #D56E1E",
"]	c #694427",
"^	c #3B322B",
"/	c #7E4C25",
"(	c #F3791B",
"_	c #FB7D1B",
":	c #C6681F",
"<	c #CC6A1F",
"[	c #43352B",
"}	c #3F342B",
"|	c #C7681F",
"1	c #F97C1B",
"2	c #A45B22",
"3	c #332F2C",
"4	c #553C29",
"5	c #D9701E",
"6	c #FA7C1B",
"7	c #CF6B1F",
"8	c #A25A22",
"9	c #302E2C",
"0	c #654228",
"a	c #E8751C",
"b	c #FC7D1B",
"c	c #49382A",
"d	c #38312C",
"e	c #E5741D",
"f	c #935424",
"g	c #F87B1B",
"h	c #EA761C",
"i	c #7F4D25",
"j	c #604128",
"k	c #CE6B1F",
"l	c #BF6520",
"m	c #965523",
"n	c #563D29",
"o	c #A55B22",
"p	c #D76F1E",
"q	c #F2791B",
"r	c #E7751C",
"s	c #8B5124",
"t	c #764926",
"u	c #A95D22",
"v	c #624128",
"w	c #B26021",
"x	c #523B29",
"y	c #C36720",
".............................................",
"......................+......................",
"....................@#$%&....................",
"...................*=-;>,')!;................",
"..................~{]&^&/=(_:................",
"................@#<[}|1234567................",
"...............4=890ab66<cd>e[...............",
"..............~{!&fg66666h!&i7j..............",
".............!k;^lb66666661m9n|).............",
".............+&9{b6666666666o.+&.............",
"...............3(66666666666p................",
"...............3q666rstu1666p................",
"...............3q661/...$666p................",
"...............3q661v...5666p................",
"...............3q661v...5666p................",
"...............9$661v...5666w................",
"................xw:y)...s|:o'................",
"............................................."};
