/* XPM */
static char *  linux6_xpm[] = {
"45 18 69 1",
" 	c None",
".	c #2d2d2d",
"+	c #31312B",
"@	c #36362A",
"#	c #B2AE11",
"$	c #DDD808",
"%	c #8D8A18",
"&	c #2E2E2C",
"*	c #585624",
"=	c #CFCA0B",
"-	c #9E9B15",
";	c #444328",
">	c #AFAB11",
",	c #B7B310",
"'	c #3E3E29",
")	c #474727",
"!	c #6B6920",
"~	c #83801B",
"{	c #D3CE0A",
"]	c #696720",
"^	c #3B3B29",
"/	c #7E7B1C",
"(	c #CEC90B",
"_	c #F1EB04",
":	c #F9F302",
"<	c #C4C00D",
"[	c #CBC60C",
"}	c #424228",
"|	c #3F3F29",
"1	c #C5C10D",
"2	c #F7F103",
"3	c #A3A014",
"4	c #33332B",
"5	c #545324",
"6	c #D8D309",
"7	c #F8F202",
"8	c #CDC90B",
"9	c #A19D14",
"0	c #30302C",
"a	c #656321",
"b	c #E6E106",
"c	c #FAF402",
"d	c #CAC50C",
"e	c #494827",
"f	c #38382A",
"g	c #E3DE07",
"h	c #928F17",
"i	c #F6F003",
"j	c #E8E306",
"k	c #7E7C1B",
"l	c #605E22",
"m	c #CCC80B",
"n	c #BEBA0E",
"o	c #959217",
"p	c #565524",
"q	c #D4CF0A",
"r	c #A4A014",
"s	c #D5D009",
"t	c #F0EA04",
"u	c #E5DF06",
"v	c #8A8719",
"w	c #76731D",
"x	c #A8A413",
"y	c #F7F202",
"z	c #DCD708",
"A	c #616022",
"B	c #B1AD11",
"C	c #525125",
"D	c #C2BE0D",
".............................................",
"......................+......................",
"....................@#$%&....................",
"...................*=-;>,')!;................",
"..................~{]&^&/(_:<................",
"................@#[}|12345678................",
"...............5(90abc77def>g}...............",
"..............~{!&hi77777j!&k8l..............",
".............!m;^nc77777772o0p1).............",
".............+&0qc7777777777r.+&.............",
"...............4_77777777777s................",
"...............4t777uvwxy777s................",
"...............4t77y/...z777s................",
"...............4t77yA...6777s................",
"...............4t77yA...6777s................",
"...............0$77yA...6777B................",
"................CB<D)...v1<r'................",
"............................................."};
