/* XPM */
static char *  linux5_xpm[] = {
"45 18 63 1",
" 	c None",
".	c #2d2d2d",
"+	c #2E2F2F",
"@	c #303132",
"#	c #60707E",
"$	c #718699",
"%	c #525E68",
"&	c #3D4247",
"*	c #6B7F90",
"=	c #586672",
"-	c #36383B",
";	c #5F6F7D",
">	c #627381",
",	c #333637",
"'	c #373A3D",
")	c #454C53",
"!	c #4E5861",
"~	c #6D8193",
"{	c #444B51",
"]	c #323435",
"^	c #4C565E",
"/	c #6B7E90",
"(	c #7890A5",
"_	c #7C94AA",
":	c #677A8A",
"<	c #6A7D8E",
"[	c #35383A",
"}	c #343638",
"|	c #7B93A9",
"1	c #5A6975",
"2	c #2F3030",
"3	c #3C4145",
"4	c #6F8396",
"5	c #7B94AA",
"6	c #6B7E8F",
"7	c #596774",
"8	c #2E2E2E",
"9	c #42494F",
"0	c #748B9F",
"a	c #7C95AB",
"b	c #697C8D",
"c	c #373B3E",
"d	c #313233",
"e	c #73899D",
"f	c #54606B",
"g	c #7A93A8",
"h	c #758CA0",
"i	c #4C565F",
"j	c #40464C",
"k	c #6A7E8F",
"l	c #657686",
"m	c #55626D",
"n	c #3D4246",
"o	c #5B6976",
"p	c #6E8294",
"q	c #748A9E",
"r	c #515C66",
"s	c #495259",
"t	c #5C6B78",
"u	c #708598",
"v	c #41474D",
"w	c #3B3F43",
"x	c #667888",
".............................................",
"......................+......................",
"....................@#$%.....................",
"...................&*=-;>,')-................",
"..................!~{.].^/(_:................",
"................@#<[}:|123456................",
"...............3/7890a55bcd;e[...............",
"..............!~).fg55555h).i6j..............",
".............)k-]la5555555|m8n:'.............",
".............+.8~a5555555555o.+..............",
"...............2(55555555555p................",
"...............2(555qrst|555p................",
"...............2(55|^...u555p................",
"...............2(55|v...4555p................",
"...............2(55|v...4555p................",
"...............8$55|v...4555#................",
"................w#:x'...r::o,................",
"............................................."};
