/* XPM */
static char * linux_xpm[] = {
"45 18 67 1",
" 	c None",
".	c #2d2d2d",
"+	c #2E2E2D",
"@	c #31312E",
"#	c #5F643F",
"$	c #747C48",
"%	c #50543A",
"&	c #3D3E33",
"*	c #6C7445",
"=	c #575C3C",
"-	c #363730",
";	c #5D633F",
">	c #606640",
",	c #33342F",
"'	c #373830",
")	c #444635",
"!	c #4C5038",
"~	c #6E7645",
"{	c #434535",
"]	c #33332F",
"^	c #4B4E38",
"/	c #6C7345",
"(	c #848E4D",
"_	c #8F9B52",
":	c #676E43",
"<	c #6A7244",
"[	c #353630",
"}	c #34352F",
"|	c #8B9750",
"1	c #585D3D",
"2	c #2F2F2D",
"3	c #3C3E32",
"4	c #717947",
"5	c #ececec",
"6	c #6B7344",
"7	c #575C3D",
"8	c #414434",
"9	c #7A844A",
"0	c #919D53",
"a	c #697144",
"b	c #373931",
"c	c #32322E",
"d	c #798249",
"e	c #52563B",
"f	c #8B9650",
"g	c #7C854A",
"h	c #4B4F38",
"i	c #404234",
"j	c #6B7244",
"k	c #646B42",
"l	c #929E53",
"m	c #53583B",
"n	c #6F7646",
"o	c #585E3D",
"p	c #8E9951",
"q	c #707846",
"r	c #838D4D",
"s	c #7A834A",
"t	c #4F533A",
"u	c #474B37",
"v	c #5A5F3E",
"w	c #8D9851",
"x	c #737C47",
"y	c #414334",
"z	c #5E633F",
"A	c #3B3D32",
"B	c #666C42",
".............................................",
"..............555....555....555..............",
".............55555..55555..55555.............",
".............55555..55555..55555.............",
".............55555..55555..55555.............",
"..............555....555....555..............",
".............................................",
"..............555....555....555..............",
".............55555..55555..55555.............",
".............55555..55555..55555.............",
".............55555..55555..55555.............",
"..............555....555....555..............",
".............................................",
"..............555....555....555..............",
".............55555..55555..55555.............",
".............55555..55555..55555.............",
".............55555..55555..55555.............",
"..............555....555....555..............",
".............................................",
