/* XPM */
static char * linux2_xpm[] = {
"45 18 66 1",
" 	c None",
".	c #2d2d2d",
"+	c #2F2F2F",
"@	c #343434",
"#	c #818181",
"$	c #A5A5A5",
"%	c #696969",
"&	c #2E2E2E",
"*	c #484848",
"=	c #989898",
"-	c #747474",
";	c #3D3D3D",
">	c #7F7F7F",
",	c #848484",
"'	c #383838",
")	c #535353",
"!	c #616161",
"~	c #9B9B9B",
"{	c #525252",
"]	c #373737",
"^	c #5F5F5F",
"/	c #BFBFBF",
"(	c #D3D3D3",
"_	c #8F8F8F",
":	c #959595",
"<	c #3B3B3B",
"[	c #3A3A3A",
"}	c #909090",
"|	c #CCCCCC",
"1	c #767676",
"2	c #313131",
"3	c #464646",
"4	c #A0A0A0",
"5	c #D2D2D2",
"6	c #969696",
"7	c #505050",
"8	c #B0B0B0",
"9	c #D6D6D6",
"0	c #939393",
"a	c #3F3F3F",
"b	c #353535",
"c	c #ADADAD",
"d	c #6B6B6B",
"e	c #CBCBCB",
"f	c #B2B2B2",
"g	c #606060",
"h	c #4D4D4D",
"i	c #8A8A8A",
"j	c #D8D8D8",
"k	c #6E6E6E",
"l	c #9C9C9C",
"m	c #D7D7D7",
"n	c #777777",
"o	c #D1D1D1",
"p	c #9E9E9E",
"q	c #BEBEBE",
"r	c #AFAFAF",
"s	c #666666",
"t	c #5A5A5A",
"u	c #797979",
"v	c #CFCFCF",
"w	c #D0D0D0",
"x	c #A4A4A4",
"y	c #4E4E4E",
"z	c #454545",
"A	c #8D8D8D",
".............................................",
"......................+......................",
"....................@#$%&....................",
"...................*=-;>,';);................",
"..................!~{&]&^=/(_................",
"................@#:<[}|123456................",
"...............3=-+789550ab>c<...............",
"..............!~)&de(5555f)&g6h..............",
".............):;]ij5555555|k+*};.............",
".............2&+lm555555555(n.2&.............",
"...............2/5555ooo5555p................",
"...............2q555rstuv555p................",
"...............2q55w^...x555p................",
"...............2q55wy...4555p................",
"...............2q55wy...4555p................",
"...............+$55wy...4555>................",
"................z>_A;...s}_n[................",
"............................................."};
