/* XPM */
static char * linux3_xpm[] = {
"45 18 66 1",
" 	c None",
".	c #2d2d2d",
"+	c #2E2F30",
"@	c #2F3234",
"#	c #55758F",
"$	c #628CAF",
"%	c #4A6174",
"&	c #2D2D2E",
"*	c #3A444C",
"=	c #5E84A5",
"-	c #4F6A81",
";	c #34393E",
">	c #54738D",
",	c #577793",
"'	c #32363A",
")	c #353B40",
"!	c #404E5B",
"~	c #475B6C",
"{	c #5F87A8",
"]	c #3F4D59",
"^	c #313437",
"/	c #455869",
"(	c #5E84A4",
"_	c #6897BE",
":	c #6B9BC4",
"<	c #5B7F9D",
"[	c #5D82A2",
"}	c #33383D",
"|	c #32373A",
"1	c #6A9AC2",
"2	c #516D84",
"3	c #2E3031",
"4	c #39424A",
"5	c #6189AB",
"6	c #6B9BC3",
"7	c #5D83A3",
"8	c #506B82",
"9	c #2D2E2F",
"0	c #3E4B56",
"a	c #6591B6",
"b	c #6B9CC4",
"c	c #5C82A1",
"d	c #353C42",
"e	c #303335",
"f	c #648FB4",
"g	c #4B6378",
"h	c #6A99C1",
"i	c #6692B7",
"j	c #455969",
"k	c #3C4852",
"l	c #597B98",
"m	c #4C657A",
"n	c #39434B",
"o	c #516D85",
"p	c #6088A9",
"q	c #6896BD",
"r	c #6590B5",
"s	c #495F72",
"t	c #435463",
"u	c #526F88",
"v	c #6A9AC3",
"w	c #628BAE",
"x	c #3D4954",
"y	c #55748E",
"z	c #384148",
"A	c #5A7D9B",
".............................................",
"......................+......................",
"....................@#$%&....................",
"...................*=-;>,')!;................",
"..................~{]&^&/(_:<................",
"................@#[}|<1234567................",
"...............4(890ab66cde>f}...............",
"..............~{!&gh66666i!&j7k..............",
".............!7;^lb66666661m9n<).............",
".............+&9{b6666666666o.+&.............",
"...............3_66666666666p................",
"...............3q666rstuv666p................",
"...............3q66v/...w666p................",
"...............3q66vx...5666p................",
"...............3q66vx...5666p................",
"...............9$66vx...5666y................",
"................zy<A)...s<<o'................",
"............................................."};
