/* XPM */
static char * windows_xpm[] = {
"20 20 242 2",
"  	c None",
". 	c #5A5C58",
"+ 	c #5B5D59",
"@ 	c #595B57",
"# 	c #595B56",
"$ 	c #878780",
"% 	c #CBC9C2",
"& 	c #D6D4CD",
"* 	c #D6D3CD",
"= 	c #D5D3CC",
"- 	c #ACAAA2",
"; 	c #51524C",
"> 	c #9F6A15",
", 	c #9E6A15",
"' 	c #785D2D",
") 	c #8B897F",
"! 	c #BCBAB2",
"~ 	c #C2BFB6",
"{ 	c #AEADA4",
"] 	c #625945",
"^ 	c #926111",
"/ 	c #A26D18",
"( 	c #9F6A16",
"_ 	c #9E6A16",
": 	c #D5A966",
"< 	c #B69D73",
"[ 	c #7A7669",
"} 	c #A3A19A",
"| 	c #BAB7AE",
"1 	c #B9B7AE",
"2 	c #B7B3AA",
"3 	c #85847E",
"4 	c #7F7765",
"5 	c #CDAD7C",
"6 	c #D6AC6A",
"7 	c #A4701E",
"8 	c #A06C18",
"9 	c #D9BB8C",
"0 	c #7E7D79",
"a 	c #6D6F6B",
"b 	c #83827B",
"c 	c #82827B",
"d 	c #7A7A73",
"e 	c #737675",
"f 	c #A2A2A0",
"g 	c #D0B58B",
"h 	c #AA7724",
"i 	c #A16C18",
"j 	c #ABADB2",
"k 	c #C0C0BF",
"l 	c #ACADAC",
"m 	c #AFB0AF",
"n 	c #AAABAA",
"o 	c #ABACAA",
"p 	c #ADAEAD",
"q 	c #D2D3D2",
"r 	c #CED1D4",
"s 	c #C1AB8A",
"t 	c #AB7725",
"u 	c #A06C19",
"v 	c #CDB38A",
"w 	c #C5C7CB",
"x 	c #D7D7D6",
"y 	c #A0A29E",
"z 	c #A4A5A1",
"A 	c #E5E5E5",
"B 	c #F3F3F3",
"C 	c #F5F5F6",
"D 	c #F8F8F8",
"E 	c #FAFAFA",
"F 	c #FFFFFF",
"G 	c #CDCFD2",
"H 	c #C0AC8A",
"I 	c #AC7726",
"J 	c #A06D19",
"K 	c #CCB48C",
"L 	c #C4C7CB",
"M 	c #BBBCB9",
"N 	c #BEBFBC",
"O 	c #91928E",
"P 	c #E0E0E0",
"Q 	c #B6B7B4",
"R 	c #B5B6B3",
"S 	c #B8B9B7",
"T 	c #E1E1E0",
"U 	c #CFD1D4",
"V 	c #C2AC8D",
"W 	c #A97B29",
"X 	c #4E6F07",
"Y 	c #42780D",
"Z 	c #A06D1A",
"` 	c #CBB48E",
" .	c #C5C7CA",
"..	c #868883",
"+.	c #7D807A",
"@.	c #DFDFDE",
"#.	c #E4E4E4",
"$.	c #E7E7E7",
"%.	c #E9E9E9",
"&.	c #EBEBEB",
"*.	c #CED0D3",
"=.	c #B7A483",
"-.	c #76892A",
";.	c #44780B",
">.	c #CAB490",
",.	c #BFC2C5",
"'.	c #F5F5F5",
").	c #EAEAEA",
"!.	c #EDEDED",
"~.	c #F0F0F0",
"{.	c #F2F2F2",
"].	c #F4F4F4",
"^.	c #FDFDFD",
"/.	c #D0D0D1",
"(.	c #648142",
"_.	c #4A790C",
":.	c #A06D1B",
"<.	c #CAB592",
"[.	c #C4C7CA",
"}.	c #C0C1BE",
"|.	c #838580",
"1.	c #7F817B",
"2.	c #E2E2E1",
"3.	c #EFEFEF",
"4.	c #F1F1F1",
"5.	c #FBFBFC",
"6.	c #ADC297",
"7.	c #3C760C",
"8.	c #6A6706",
"9.	c #A06D1C",
"0.	c #CAB594",
"a.	c #C4C7C9",
"b.	c #C8C9C7",
"c.	c #949692",
"d.	c #E6E6E6",
"e.	c #B2B3B0",
"f.	c #B0B1AE",
"g.	c #B6B6B5",
"h.	c #ACBA9D",
"i.	c #598A2A",
"j.	c #618A2A",
"k.	c #8B6A13",
"l.	c #CAB595",
"m.	c #C3C5C8",
"n.	c #CECFCD",
"o.	c #969794",
"p.	c #959793",
"q.	c #DADDD6",
"r.	c #FBFAFB",
"s.	c #E3EBDC",
"t.	c #779E4D",
"u.	c #4C8018",
"v.	c #9DA65F",
"w.	c #A7772B",
"x.	c #9F6D1D",
"y.	c #C9B697",
"z.	c #C0C2C5",
"A.	c #EFF3EB",
"B.	c #CAD6BC",
"C.	c #B6C9A3",
"D.	c #8FAD6F",
"E.	c #BBCCAA",
"F.	c #F9F7FA",
"G.	c #F1F3F0",
"H.	c #97B478",
"I.	c #568919",
"J.	c #658C3F",
"K.	c #B7AF87",
"L.	c #AB792E",
"M.	c #C9B79A",
"N.	c #C3C4C8",
"O.	c #D7E1CC",
"P.	c #5A872C",
"Q.	c #67962A",
"R.	c #8DB258",
"S.	c #618E30",
"T.	c #D0DBC4",
"U.	c #C5D4B6",
"V.	c #5B8C21",
"W.	c #7CA73F",
"X.	c #6E8A58",
"Y.	c #C6B5A2",
"Z.	c #A9792C",
"`.	c #9F6E1E",
" +	c #C8B79C",
".+	c #C1C3C7",
"++	c #92B273",
"@+	c #82AB45",
"#+	c #B6D574",
"$+	c #9EBE6D",
"%+	c #66903B",
"&+	c #6B953F",
"*+	c #88AF4B",
"=+	c #82A951",
"-+	c #A7B4A0",
";+	c #C0B29F",
">+	c #A8792D",
",+	c #9F6E1F",
"'+	c #D1BD9D",
")+	c #A29D96",
"!+	c #B4B5BC",
"~+	c #9BA29B",
"{+	c #527F28",
"]+	c #8CB645",
"^+	c #B3D372",
"/+	c #93B663",
"(+	c #81A84A",
"_+	c #90B84D",
":+	c #618742",
"<+	c #A5A09E",
"[+	c #CAB699",
"}+	c #A87A2F",
"|+	c #9C691A",
"1+	c #D0B180",
"2+	c #D6C2A2",
"3+	c #D1BFA2",
"4+	c #D6C2A8",
"5+	c #AFB17A",
"6+	c #5C8B25",
"7+	c #A3C95A",
"8+	c #B4D374",
"9+	c #B3D278",
"0+	c #719B33",
"a+	c #A0A96E",
"b+	c #DBC5A9",
"c+	c #D2B485",
"d+	c #A27224",
"e+	c #5E3C05",
"f+	c #926010",
"g+	c #986511",
"h+	c #996511",
"i+	c #99620F",
"j+	c #646D0A",
"k+	c #6F992D",
"l+	c #9DC354",
"m+	c #5F8C21",
"n+	c #5E730E",
"o+	c #94620D",
"p+	c #936110",
"q+	c #704808",
"r+	c #45780F",
"s+	c #477A10",
"            . + . @ @ #                 ",
"            $ % & * = - ;               ",
"      > , ' ) ! ~ ~ ~ { ] ^ / (         ",
"    _ : < [ } | | 1 | 2 3 4 5 6 7       ",
"    8 9 0 a b b b b c b d e f g h       ",
"    i g j k l m n o l p m q r s t       ",
"    u v w x y z A B C D E F G H I       ",
"    J K L M N O P Q R R S T U V W X Y   ",
"    Z `  .N ..+.@.#.$.%.&.D *.=.-.;.    ",
"    Z >.,.'.#.$.).!.~.{.].^./.(._.      ",
"    :.<.[.}.|.1.2.!.3.4.B 5.6.7.8.      ",
"    9.0.a.M b.c.d.e.f.f.g.h.i.j.k.      ",
"    9.l.m.n.o.p.q.'.D r.s.t.u.v.w.      ",
"    x.y.z.A.B.C.D.E.F.G.H.I.J.K.L.      ",
"    x.M.N.O.P.Q.R.S.T.U.V.W.X.Y.Z.      ",
"    `. +.+F ++@+#+$+%+&+*+=+-+;+>+      ",
"    ,+'+)+!+~+{+]+^+/+(+_+:+<+[+}+      ",
"    |+1+2+3+4+5+6+7+8+9+0+a+b+c+d+      ",
"    e+f+g+h+h+i+j+k+l+m+n+o+h+p+q+      ",
"                  r+s+                  "};
