/* XPM */
static char * m_xpm[] = {
"9 20 3 1",
" 	c None",
".	c #1C1B20",
"+	c #05D5FC",
".........",
".........",
"..++.++..",
".+..+..+.",
".+..+..+.",
".+..+..+.",
".+..+..+.",
".+.....+.",
".+.....+.",
".........",
".........",
".........",
".........",
".........",
".........",
".........",
".........",
".........",
".........",
"........."};
