/* XPM */
static char * percent_xpm[] = {
"16 20 3 1",
" 	c None",
".	c #1C1B20",
"+	c #05D5FC",
"................",
"...++......++...",
"..+..+.....++...",
".+....+...++....",
".+....+...++....",
".+....+..++.....",
"..+..+...++.....",
"...++...++......",
"........++......",
".......++.......",
".......++.......",
"......++........",
"......++...++...",
".....++...+..+..",
".....++..+....+.",
"....++...+....+.",
"....++...+....+.",
"...++.....+..+..",
"...++......++...",
"................"};
