/* XPM */
static char * closeA_xpm[] = {
"18 38 4 1",
" 	c None",
".	c #A2AF5D",
"+	c #FFFFFF",
"@	c #545C45",
"..................",
"..................",
"..................",
"..................",
"..................",
"..................",
"......++..++......",
"......++..++......",
"..................",
"..................",
"......++..++......",
"......++..++......",
"..................",
"..................",
"..................",
"..................",
"..................",
"..................",
"..................",
"..................",
"..................",
"..................",
"..................",
"..................",
"..................",
"......@@..@@......",
"......@@..@@......",
"..................",
"..................",
"......@@..@@......",
"......@@..@@......",
"..................",
"..................",
"..................",
"..................",
"..................",
"..................",
".................."};
