/* XPM */
static char * frameATL_xpm[] = {
"22 22 2 1",
" 	c None",
".	c #A2AF5D",
"  ....................",
" .....................",
"......................",
"......................",
"....                  ",
"....                  ",
"....                  ",
"....                  ",
"....                  ",
"....                  ",
"....                  ",
"....                  ",
"....                  ",
"....                  ",
"....                  ",
"....                  ",
"....                  ",
"....                  ",
"....                  ",
"....                  ",
"....                  ",
"....                  "};
