/* XPM */
static char * menusel_xpm[] = {
"4 25 15 1",
" 	c None",
".	c #B3BE6C",
"+	c #B0BC6A",
"@	c #ADB967",
"#	c #AAB664",
"$	c #A7B462",
"%	c #A5B15F",
"&	c #A2AE5C",
"*	c #A2AF5D",
"=	c #9FAC5A",
"-	c #9CA957",
";	c #A6B260",
">	c #A9B563",
",	c #ACB866",
"'	c #AFBB69",
"....",
"++++",
"@@@@",
"####",
"$$$$",
"%%%%",
"&&&*",
"====",
"----",
"----",
"----",
"----",
"----",
"----",
"----",
"----",
"----",
"----",
"----",
"====",
"****",
";;;;",
">>>>",
",,,,",
"''''"};
